<svg width="16" height="16" viewBox="0 0 16 16" fill="none" xmlns="http://www.w3.org/2000/svg">
<path d="M0 0V16H16V0H0ZM3.92383 3.14551C4.55756 3.15264 5.18183 3.58984 5.20899 4.34668C5.22253 5.01968 4.63604 5.53229 3.90723 5.54785H3.88965C3.26223 5.54061 2.64949 5.09244 2.62109 4.34668C2.63004 3.68117 3.18945 3.16129 3.92383 3.14551ZM10.7227 6.3252C11.4194 6.32952 12.0769 6.53621 12.6172 7.08693C13.1786 7.71307 13.3588 8.5764 13.3789 9.45411V13.4463H11.0781V9.72559C11.073 9.02823 10.8341 8.18056 9.91113 8.15235C9.37019 8.15811 8.98873 8.47244 8.72753 8.99805C8.65623 9.16723 8.64596 9.36169 8.64257 9.55567V13.4463H6.34277C6.35157 11.5013 6.36367 9.55639 6.35937 7.61133C6.35937 7.05883 6.35405 6.6868 6.34277 6.49512H8.64257V7.47559C8.83779 7.19795 9.05429 6.93464 9.34471 6.72265C9.73864 6.44152 10.2119 6.33375 10.7227 6.3252ZM2.75684 6.49512H5.05664V13.4463H2.75684V6.49512Z" fill="#E3E3EA"/>
</svg>
