<svg width="14" height="11" viewBox="0 0 14 11" fill="none" xmlns="http://www.w3.org/2000/svg">
<path d="M11.4866 0.606568L10.6333 1.27323L6.99997 3.97323L3.36663 1.24657L2.5133 0.579901C2.31227 0.413598 2.06687 0.309928 1.80749 0.281734C1.54812 0.253541 1.28617 0.302064 1.05411 0.42129C0.82204 0.540517 0.630052 0.725209 0.501928 0.952484C0.373804 1.17976 0.315173 1.43963 0.333301 1.6999V9.42657C0.333301 9.66703 0.428825 9.89764 0.598858 10.0677C0.768891 10.2377 0.999505 10.3332 1.23997 10.3332H3.36663V5.18657L6.99997 7.91323L10.6333 5.18657V10.3332H12.76C13.0004 10.3332 13.231 10.2377 13.4011 10.0677C13.5711 9.89764 13.6666 9.66703 13.6666 9.42657V1.6999C13.6792 1.44188 13.6164 1.18577 13.4861 0.962716C13.3558 0.739662 13.1635 0.559265 12.9326 0.443455C12.7017 0.327644 12.4421 0.281407 12.1854 0.310364C11.9287 0.339321 11.6859 0.442225 11.4866 0.606568Z" fill="#E3E3EA"/>
</svg>
