<svg width="14" height="14" viewBox="0 0 14 14" fill="none" xmlns="http://www.w3.org/2000/svg">
<path d="M12.5 0H1.5C0.671875 0 0 0.671875 0 1.5V12.5C0 13.3281 0.671875 14 1.5 14H12.5C13.3281 14 14 13.3281 14 12.5V1.5C14 0.671875 13.3281 0 12.5 0ZM8.66562 11.9906C8.40312 12.0375 8.30625 11.875 8.30625 11.7406C8.30625 11.5719 8.3125 10.7094 8.3125 10.0125C8.3125 9.525 8.15 9.21563 7.95937 9.05313C9.11563 8.925 10.3344 8.76562 10.3344 6.76875C10.3344 6.2 10.1313 5.91563 9.8 5.55C9.85313 5.41563 10.0312 4.8625 9.74687 4.14375C9.3125 4.00938 8.31875 4.70312 8.31875 4.70312C7.90625 4.5875 7.45938 4.52812 7.01875 4.52812C6.57812 4.52812 6.13125 4.5875 5.71875 4.70312C5.71875 4.70312 4.725 4.00938 4.29063 4.14375C4.00625 4.85938 4.18125 5.4125 4.2375 5.55C3.90625 5.91563 3.75 6.2 3.75 6.76875C3.75 8.75625 4.91563 8.925 6.07188 9.05313C5.92188 9.1875 5.7875 9.41875 5.74062 9.75C5.44375 9.88437 4.68437 10.1156 4.23125 9.31563C3.94687 8.82188 3.43438 8.78125 3.43438 8.78125C2.92812 8.775 3.4 9.1 3.4 9.1C3.7375 9.25625 3.975 9.85625 3.975 9.85625C4.27812 10.7844 5.72813 10.4719 5.72813 10.4719C5.72813 10.9062 5.73438 11.6125 5.73438 11.7406C5.73438 11.875 5.64062 12.0375 5.375 11.9906C3.3125 11.3 1.86875 9.3375 1.86875 7.04375C1.86875 4.175 4.0625 1.99688 6.93125 1.99688C9.8 1.99688 12.125 4.175 12.125 7.04375C12.1281 9.3375 10.7281 11.3031 8.66562 11.9906ZM5.6 10.0813C5.54063 10.0938 5.48438 10.0687 5.47813 10.0281C5.47188 9.98125 5.5125 9.94063 5.57188 9.92813C5.63125 9.92188 5.6875 9.94688 5.69375 9.9875C5.70312 10.0281 5.6625 10.0688 5.6 10.0813ZM5.30312 10.0531C5.30312 10.0938 5.25625 10.1281 5.19375 10.1281C5.125 10.1344 5.07812 10.1 5.07812 10.0531C5.07812 10.0125 5.125 9.97812 5.1875 9.97812C5.24687 9.97187 5.30312 10.0063 5.30312 10.0531ZM4.875 10.0188C4.8625 10.0594 4.8 10.0781 4.74687 10.0594C4.6875 10.0469 4.64688 10 4.65938 9.95938C4.67188 9.91875 4.73438 9.9 4.7875 9.9125C4.85 9.93125 4.89062 9.97813 4.875 10.0188ZM4.49062 9.85C4.4625 9.88438 4.40312 9.87813 4.35625 9.83125C4.30937 9.79063 4.29688 9.73125 4.32812 9.70312C4.35625 9.66875 4.41563 9.675 4.4625 9.72188C4.50313 9.7625 4.51875 9.825 4.49062 9.85ZM4.20625 9.56563C4.17813 9.58438 4.125 9.56563 4.09062 9.51875C4.05625 9.47188 4.05625 9.41875 4.09062 9.39688C4.125 9.36875 4.17813 9.39062 4.20625 9.4375C4.24063 9.48438 4.24063 9.54063 4.20625 9.56563ZM4.00313 9.2625C3.975 9.29062 3.92812 9.275 3.89375 9.24375C3.85938 9.20312 3.85312 9.15625 3.88125 9.13437C3.90937 9.10625 3.95625 9.12187 3.99062 9.15312C4.025 9.19375 4.03125 9.24062 4.00313 9.2625ZM3.79375 9.03125C3.78125 9.05937 3.74062 9.06563 3.70625 9.04375C3.66562 9.025 3.64687 8.99062 3.65937 8.9625C3.67188 8.94375 3.70625 8.93437 3.74688 8.95C3.7875 8.97188 3.80625 9.00625 3.79375 9.03125Z" fill="#E3E3EA"/>
</svg>
