<svg width="20" height="20" viewBox="0 0 20 20" fill="none" xmlns="http://www.w3.org/2000/svg">
<path d="M8.64648 16.646C10.4215 16.6456 12.1453 16.0514 13.5435 14.958L17.9395 19.354L19.3535 17.94L14.9575 13.544C16.0515 12.1457 16.6461 10.4214 16.6465 8.646C16.6465 4.235 13.0575 0.645996 8.64648 0.645996C4.23548 0.645996 0.646484 4.235 0.646484 8.646C0.646484 13.057 4.23548 16.646 8.64648 16.646ZM8.64648 2.646C11.9555 2.646 14.6465 5.337 14.6465 8.646C14.6465 11.955 11.9555 14.646 8.64648 14.646C5.33748 14.646 2.64648 11.955 2.64648 8.646C2.64648 5.337 5.33748 2.646 8.64648 2.646Z" fill="white"/>
</svg>
