<svg width="16" height="16" viewBox="0 0 16 16" fill="none" xmlns="http://www.w3.org/2000/svg">
<path d="M0 0V16H16V0H0ZM12.8 5.6V5.9C12.8 9.2 10.3 12.9 5.8 12.9C4.4 12.9 3.1 12.5 2 11.8H2.6C3.8 11.8 4.8 11.4 5.7 10.7C4.6 10.7 3.7 10 3.4 9H3.9C4.1 9 4.3 9 4.5 8.9C3.4 8.7 2.5 7.7 2.5 6.5C2.8 6.7 3.2 6.8 3.6 6.8C2.9 6.4 2.5 5.6 2.5 4.8C2.5 4.3 2.6 3.9 2.8 3.6C4 5.1 5.9 6 7.9 6.1C7.9 5.9 7.8 5.7 7.8 5.5C7.8 4.1 8.9 3 10.3 3C11 3 11.6 3.3 12.1 3.8C12.7 3.7 13.2 3.5 13.7 3.2C13.5 3.8 13.1 4.3 12.6 4.6C13.1 4.5 13.6 4.4 14 4.2C13.7 4.8 13.3 5.2 12.8 5.6Z" fill="#E3E3EA"/>
</svg>
